<?xml version="1.0" standalone="no"?>
<!DOCTYPE svg PUBLIC "-//W3C//DTD SVG 1.1//EN" "http://www.w3.org/Graphics/SVG/1.1/DTD/svg11.dtd" >
<svg xmlns="http://www.w3.org/2000/svg" xmlns:xlink="http://www.w3.org/1999/xlink" version="1.1" viewBox="-10 0 634 1000">
   <path fill="currentColor"
d="M55 722h190q-77 -40 -128 -116t-51 -188q0 -129 56.5 -213t165.5 -109v-111h60v102q17 -1 35 -1q23 0 45 1v-102h60v109q41 8 80 22v77q-41 -14 -80 -21v215h-60v-222q-16 -1 -32 -1q-25 0 -48 3v220h-60v-205q-133 52 -133 241q0 87 36.5 154.5t103 106t156.5 38.5h133
v78h-529v-78z" />
</svg>
