<?xml version="1.0" standalone="no"?>
<!DOCTYPE svg PUBLIC "-//W3C//DTD SVG 1.1//EN" "http://www.w3.org/Graphics/SVG/1.1/DTD/svg11.dtd" >
<svg xmlns="http://www.w3.org/2000/svg" xmlns:xlink="http://www.w3.org/1999/xlink" version="1.1" viewBox="-10 0 642 1000">
   <path fill="currentColor"
d="M422 41v35q50 2 96 12.5t83 29.5l-36 76q-30 -14 -65.5 -25t-77.5 -13v575q40 -1 77.5 -9t73.5 -19v78q-35 13 -70 20t-81 8v71h-64v-71q-149 -10 -223 -108.5t-74 -258.5q0 -100 34.5 -178.5t100.5 -127t162 -57.5v-38h64zM358 158q-94 15 -148 90t-54 195
q0 121 50.5 196t151.5 89v-570z" />
</svg>
