<?xml version="1.0" standalone="no"?>
<!DOCTYPE svg PUBLIC "-//W3C//DTD SVG 1.1//EN" "http://www.w3.org/Graphics/SVG/1.1/DTD/svg11.dtd" >
<svg xmlns="http://www.w3.org/2000/svg" xmlns:xlink="http://www.w3.org/1999/xlink" version="1.1" viewBox="-10 0 1216 2048">
   <path fill="currentColor"
d="M417 646l-1 0.71875v150.403l73.3506 -53.791q117.649 -86.3311 224.937 -83.6035q103.713 3.27246 182.66 111.112q54.0527 74.1602 44.7666 160.883q-9.71387 87.2773 -83.3838 174.02q-74.3301 87.2578 -105.866 129.495q-32.4639 42.7627 -43.4893 71.04
q-27.9746 69.7227 22.4385 140.142q30.5869 42.5811 105.911 72.3184q74.6758 30.2627 152.065 35.4209l30.0215 -107.431l-68.7266 -14.6807q-58.6846 -13.0469 -91.5605 -56.9111q-19.124 -26.1357 -4.93848 -59.4248q13.8145 -33.7109 77.6543 -106.264
q64.1602 -72.4473 103.552 -135.424q39.6084 -63.0234 53.7598 -126.365q13.8486 -63.6582 -1.71973 -129.914q-15.4316 -66.7441 -69.4316 -139.744q-80 -110 -171.91 -131.602q-196.09 -46.3984 -334.09 39.6016q-77 48 -95 60zM416 646.719v0v150.403v210.878v528h-156
v-1139h-200v-130h200v-183h156v183h330v130h-330v249.719z" />
</svg>
