<?xml version="1.0" standalone="no"?>
<!DOCTYPE svg PUBLIC "-//W3C//DTD SVG 1.1//EN" "http://www.w3.org/Graphics/SVG/1.1/DTD/svg11.dtd" >
<svg xmlns="http://www.w3.org/2000/svg" xmlns:xlink="http://www.w3.org/1999/xlink" version="1.1" viewBox="-10 0 1840 2048">
   <path fill="currentColor"
d="M1752 433q2.44727 3.0459 -88.2363 63q-8.64355 -15.7236 -36.7637 -48q-115 -132 -262 -187q-153.952 -60 -521 -60l-171 11q-2 0 10.5 8.5t50 42t78.5 110t41 165.5q0 168 -106 280.5t-271 112.5t-270.5 -113t-105.5 -262q0 -222 201 -357q168.021 -112.851 506 -112
q791 0 945 346zM477 314q-98 0 -169.5 73t-71.5 170q0 99 71.5 169t168.5 70q98 0 170 -72t72 -169q0 -98 -71.5 -169.5t-169.5 -71.5zM192 1146q95 227 443 279q176 26 351 26l171 -11q2 0 -10.5 -8.5t-50 -42t-78.5 -110t-41 -165.5q0 -167 106.5 -280t270.5 -113
q165 0 270.5 113t105.5 262q0 222 -184 345.5t-523 123.5q-726 0 -889 -263q-31 -50 -33.6719 -114q45.6719 -21 91.6719 -42zM1353 1338q98 0 169.5 -73t71.5 -170q0 -99 -71.5 -169t-168.5 -70q-98 0 -170 72t-72 169q0 98 71.5 169.5t169.5 71.5z" />
</svg>
