<?xml version="1.0" standalone="no"?>
<!DOCTYPE svg PUBLIC "-//W3C//DTD SVG 1.1//EN" "http://www.w3.org/Graphics/SVG/1.1/DTD/svg11.dtd" >
<svg xmlns="http://www.w3.org/2000/svg" xmlns:xlink="http://www.w3.org/1999/xlink" version="1.1" viewBox="-10 0 2275 2048">
   <path fill="currentColor"
d="M1163.82 102q-94.8223 0 -169.875 75q-75.9473 77 -107.965 199l0.754883 23v1126h-145.715v-1097q-0.0224609 -165 -52.8506 -245q-52.1719 -81 -163.835 -81q-94.3369 0 -169.875 76q-75.4619 77 -107.965 197v1150h-144.96v-1568h138.165l5.28516 186
q56.0127 -98 136.655 -151q83.3574 -55 184.22 -55q106.138 0 179.689 55q74.4482 56 110.23 180q56.2178 -112 147.225 -173q91.9932 -62 200.075 -62q161.918 0 243.11 124q80.0303 122.341 80.0303 369v983q-0.222656 168 63.3887 244q38.3887 46 142.389 46
q56 0 98.5 -27.5t114.5 -120.5l-160 -123l430 -96l-1 427l-166 -128q-97 120 -132 147q-65 49 -155 49q-192 0 -302 -137q-65 -82 -77.7383 -281v0v-985q-0.261719 -166 -52.8496 -245q-54.4121 -81 -164.59 -81z" />
</svg>
