<?xml version="1.0" standalone="no"?>
<!DOCTYPE svg PUBLIC "-//W3C//DTD SVG 1.1//EN" "http://www.w3.org/Graphics/SVG/1.1/DTD/svg11.dtd" >
<svg xmlns="http://www.w3.org/2000/svg" xmlns:xlink="http://www.w3.org/1999/xlink" version="1.1" viewBox="-10 0 1510 2048">
   <path fill="currentColor"
d="M726 606q6 -1 15 -1h22q8 4 10 1q146 -241 256 -348q175 -172 391 -172l-25 142q-189 22 -263 95q-37.2461 39.0303 -117.5 178.5q-51.5 89.5 -82.5 139.5q133 54 215.5 175.5t82.5 268.5q0 199 -140.5 339.5t-339.5 140.5t-339.5 -140.5t-140.5 -339.5q0 -147 82.5 -268
t214.5 -176q-51 -94 -62.5 -106q-57.7432 -101.204 -90.5 -148q-98 -138 -284 -149l-50 -152q269 0 487 281q73 94 159 239zM750 1415q136 0 233 -97t97 -233t-97 -233t-233 -97t-233 97t-97 233t97 233t233 97z" />
</svg>
