<?xml version="1.0" standalone="no"?>
<!DOCTYPE svg PUBLIC "-//W3C//DTD SVG 1.1//EN" "http://www.w3.org/Graphics/SVG/1.1/DTD/svg11.dtd" >
<svg xmlns="http://www.w3.org/2000/svg" xmlns:xlink="http://www.w3.org/1999/xlink" version="1.1" viewBox="-10 0 1282 2048">
   <path fill="currentColor"
d="M437.24 419.959q-99.2402 3.04102 -171.392 64.4521q-72.8486 61.5889 -78.0938 152.07l-174.941 4.52441q2.18652 -93.0059 59.4023 -178.596q56.7842 -85.4102 153.982 -138.027q96.8018 -52.3828 207.138 -55.374q220.664 -6.00879 355.196 138.363
q134.249 143.395 140.888 399.991l0.801758 30.9902q1.8291 89.1357 -2.44336 148.646h128.222v-903h156v1452h-156v-393h-961v-156h389h193h65.7295q4.66602 -62.1465 2.37305 -150.861l-0.904297 -34.9883q-5.19824 -187.15 -84.4209 -285.913
q-79.7773 -99.2373 -222.537 -95.2783z" />
</svg>
