<?xml version="1.0" encoding="UTF-8" standalone="no"?>
<svg
   version="1.1"
   viewBox="-29 0 1533 2048"
   id="svg1"
   sodipodi:docname="my_uni2627.svg"
   xml:space="preserve"
   inkscape:version="1.3.2 (091e20e, 2023-11-25, custom)"
   xmlns:inkscape="http://www.inkscape.org/namespaces/inkscape"
   xmlns:sodipodi="http://sodipodi.sourceforge.net/DTD/sodipodi-0.dtd"
   xmlns="http://www.w3.org/2000/svg"
   xmlns:svg="http://www.w3.org/2000/svg"><defs
     id="defs1" /><sodipodi:namedview
     id="namedview1"
     pagecolor="#ffffff"
     bordercolor="#000000"
     borderopacity="0.25"
     inkscape:showpageshadow="2"
     inkscape:pageopacity="0.0"
     inkscape:pagecheckerboard="0"
     inkscape:deskcolor="#d1d1d1"
     inkscape:zoom="0.27310618"
     inkscape:cx="737.80827"
     inkscape:cy="913.56408"
     inkscape:window-width="1920"
     inkscape:window-height="991"
     inkscape:window-x="-9"
     inkscape:window-y="-9"
     inkscape:window-maximized="1"
     inkscape:current-layer="svg1" /><path
     id="path1-1"
     style="stroke-width:0.759947"
     d="M 669.10893,1200.2908 1072.58,921.54156 h 261.2735 L 802.05785,1282.2171 1346.5704,1648.8873 H 1082.9847 L 669.10893,1365.1425 252.92101,1648.8873 H -9.5085916 L 536.16002,1282.2171 3.2082584,921.54156 H 263.32571 Z M 756.01037,863.53729 V 1667.5373 H 588.85455 V -22.462705 h 467.51395 c 138.716,0 247.3964,40.666667 326.0409,122 78.6444,81.333325 117.9667,188.999995 117.9667,322.999995 0,141.33333 -38.4517,250.16667 -115.3549,326.5 -76.9033,76.33333 -187.0346,114.5 -330.3939,114.5 z m 0,-157 h 300.35813 c 89.3819,0 157.8693,-24.16667 205.4623,-72.5 47.593,-48.33333 71.3895,-118.16667 71.3895,-209.5 0,-86.66667 -23.7965,-156 -71.3895,-208 -47.593,-52 -112.8882,-79 -195.8857,-81 H 756.01037 Z"
     inkscape:label="path1" /></svg>
