<?xml version="1.0" standalone="no"?>
<!DOCTYPE svg PUBLIC "-//W3C//DTD SVG 1.1//EN" "http://www.w3.org/Graphics/SVG/1.1/DTD/svg11.dtd" >
<svg xmlns="http://www.w3.org/2000/svg" xmlns:xlink="http://www.w3.org/1999/xlink" version="1.1" viewBox="-10 0 2222 2048">
   <path fill="currentColor"
d="M1130.42 225q-100.425 0 -179.032 75q-79.3926 77 -113.785 199l0.796875 23v1014h-153.571v-985q0.166992 -163 -55.6982 -245q-55.1348 -81 -172.667 -81q-99.4678 0 -179.032 76q-79.4355 77 -113.785 197v1038h-152.774v-1456h145.612l5.57031 186
q58.9414 -98 144.022 -151q87.9189 -55 194.15 -55q111.769 0 189.376 55q78.3926 56 116.172 180q59.2207 -112 155.162 -173q97.0586 -62 210.861 -62q170.197 0 256.215 124q51.9824 75 71.9492 198h9.46191l1.34082 -116q58.2305 -97 144.022 -151
q87.208 -55 194.15 -55q145.058 0 213.376 51q82.6816 63 97.7539 185l27.043 226l-6.11523 568q-24 517 -157 574q-0.30957 1.13086 -258 110l-253.639 88.8955v185.104h-152.774v-131.56l-215.587 75.5596h-295.571l511.158 -211.933v-1229.07
q0.413086 -167 -55.6982 -245q-56.8887 -81 -173.464 -81zM1512.36 1716.73l141.639 -58.7256q201.003 -67.001 222 -122q174 -95 155 -406q-10 -99 2.54395 -579q0.71875 -163.621 -55.6982 -245q-54.8457 -81 -172.667 -81q-101.179 0 -179.032 76
q-79.1465 77 -113.785 197v55v1163.73z" />
</svg>
