<?xml version="1.0" standalone="no"?>
<!DOCTYPE svg PUBLIC "-//W3C//DTD SVG 1.1//EN" "http://www.w3.org/Graphics/SVG/1.1/DTD/svg11.dtd" >
<svg xmlns="http://www.w3.org/2000/svg" xmlns:xlink="http://www.w3.org/1999/xlink" version="1.1" viewBox="-10 0 1282 2048">
   <path fill="currentColor"
d="M94 745l-24 3q-10 0 -10 -6q0 -28 33 -123.5t76 -140.5q145 -149 326 -149t291 113.5t110 281.5t-132 293q-40 38 -87 72h379v-903h156v1452h-156v-393h-961v-156h389q198 0 264 -197q24 -70 24 -148q0 -132 -106.5 -212.5t-226 -80.5t-209.5 77q-88 77 -118 199
q-5 18 -18 18z" />
</svg>
