<?xml version="1.0" standalone="no"?>
<!DOCTYPE svg PUBLIC "-//W3C//DTD SVG 1.1//EN" "http://www.w3.org/Graphics/SVG/1.1/DTD/svg11.dtd" >
<svg xmlns="http://www.w3.org/2000/svg" xmlns:xlink="http://www.w3.org/1999/xlink" version="1.1" viewBox="-10 0 1331 2048">
   <path fill="currentColor"
d="M80 268q166 -40 348 -40q344 0 538.5 216t194.5 537t-194.5 537t-525.5 216q-200 0 -366 -40q131 -4 270 -112t230.5 -273t91.5 -328.5t-90.5 -329t-228.5 -272.5t-268 -111zM740 769q28 98 28 211q0 206 -93 373t-235 281q309 0 474 -196q147 -176 147 -456t-147 -456
q-165 -198 -474 -198q226 182 300 441z" />
</svg>
