<?xml version="1.0" standalone="no"?>
<!DOCTYPE svg PUBLIC "-//W3C//DTD SVG 1.1//EN" "http://www.w3.org/Graphics/SVG/1.1/DTD/svg11.dtd" >
<svg xmlns="http://www.w3.org/2000/svg" xmlns:xlink="http://www.w3.org/1999/xlink" version="1.1" viewBox="-10 0 1643 2048">
   <path fill="currentColor"
d="M884 809q-76 -101 -76 -242t110 -251t265 -110t265 110t110 265t-110 265t-250.5 110t-243.5 -77l-198 198q69 99 69 197q0 174 -110 284t-265 110t-265 -110t-110 -265t110 -265t254.5 -110t249.5 86zM908 581q0 114 80.5 194.5t194.5 80.5t194.5 -80.5t80.5 -194.5
t-80.5 -194.5t-194.5 -80.5t-194.5 80.5t-80.5 194.5zM175 1293q0 114 80.5 194.5t194.5 80.5t194.5 -80.5t80.5 -194.5t-80.5 -194.5t-194.5 -80.5t-194.5 80.5t-80.5 194.5z" />
</svg>
