<?xml version="1.0" standalone="no"?>
<!DOCTYPE svg PUBLIC "-//W3C//DTD SVG 1.1//EN" "http://www.w3.org/Graphics/SVG/1.1/DTD/svg11.dtd" >
<svg xmlns="http://www.w3.org/2000/svg" xmlns:xlink="http://www.w3.org/1999/xlink" version="1.1" viewBox="-10 0 2275 2048">
   <path fill="currentColor"
d="M1545 607l-9 817q0 198 58.5 289.5t137.5 91.5q56 0 98.5 -27.5t114.5 -120.5l-160 -123l430 -96l-1 427l-166 -128q-97 120 -132 147q-65 49 -155 49q-171 0 -276 -132.5t-105 -327.5q7 -56 7 -327v-348l-2 -211q0 -129 -18.5 -180.5t-38.5 -74.5q-41 -51 -105.5 -51
t-250.5 90q-25 15 -26 28v1239h-156v-1179q0 -78 -48 -127.5t-133 -49.5t-211 84q-31 21 -46 39v1233h-156v-1255q0 -42 -46 -58q-20 -7 -43 -11.5t-36.5 -8.5t-17 -7.5t-3.5 -15t15 -19.5l255 -120q12 -6 15 -6q17 0 17 24v166q1 6 7.5 6t33 -14t69.5 -39.5t113.5 -59.5
t149.5 -34q127 0 181 109q22 44 39 37.5t25 -9.5l219 -110q52 -27 117 -27q107 0 162 76q77 110 77 345z" />
</svg>
