<?xml version="1.0" standalone="no"?>
<!DOCTYPE svg PUBLIC "-//W3C//DTD SVG 1.1//EN" "http://www.w3.org/Graphics/SVG/1.1/DTD/svg11.dtd" >
<svg xmlns="http://www.w3.org/2000/svg" xmlns:xlink="http://www.w3.org/1999/xlink" version="1.1" viewBox="-10 0 1719 2048">
   <path fill="currentColor"
d="M1164 1275.5q55 -67.5 138 -87.5q39 -82 55.5 -183.5t16.5 -130.5q0 -196 -150 -303t-370 -107t-370 107t-150 303q0 97 48 248q13 41 25 66h-3q84 18 140 87t56 139q0 122 -73 195t-177 73t-177 -73t-73 -169.5t56 -165.5t142 -87q-37 -92 -50.5 -193t-13.5 -130
q0 -236 178 -368t442 -132q262 0 441 136t179 374q0 93 -27 190.5t-37 122.5q88 18 143.5 86.5t55.5 138.5q0 123 -73 196t-177 73t-177 -73t-73 -169t55 -163.5zM1209 1431q0 62 44 106t106 44t106 -44t44 -106t-44 -106t-106 -44t-106 44t-44 106zM200 1432q0 62 44 106
t106 44t106 -44t44 -106t-44 -106t-106 -44t-106 44t-44 106z" />
</svg>
