<?xml version="1.0" encoding="UTF-8" standalone="no"?>
<svg
   version="1.1"
   viewBox="-10 0 1719 2048"
   id="svg1"
   sodipodi:docname="uni260B_Cardo-Regular.svg"
   inkscape:version="1.3.2 (091e20e, 2023-11-25, custom)"
   xmlns:inkscape="http://www.inkscape.org/namespaces/inkscape"
   xmlns:sodipodi="http://sodipodi.sourceforge.net/DTD/sodipodi-0.dtd"
   xmlns="http://www.w3.org/2000/svg"
   xmlns:svg="http://www.w3.org/2000/svg">
  <defs
     id="defs1" />
  <sodipodi:namedview
     id="namedview1"
     pagecolor="#ffffff"
     bordercolor="#000000"
     borderopacity="0.25"
     inkscape:showpageshadow="2"
     inkscape:pageopacity="0.0"
     inkscape:pagecheckerboard="0"
     inkscape:deskcolor="#d1d1d1"
     inkscape:zoom="0.38427734"
     inkscape:cx="860.05591"
     inkscape:cy="1024"
     inkscape:window-width="1920"
     inkscape:window-height="991"
     inkscape:window-x="-9"
     inkscape:window-y="-9"
     inkscape:window-maximized="1"
     inkscape:current-layer="svg1" />
  <path
     fill="currentColor"
     d="m 1164,770.5 q 55,67.5 138,87.5 39,82 55.5,183.5 16.5,101.5 16.5,130.5 0,196 -150,303 -150,107 -370,107 -220,0 -370,-107 -150,-107 -150,-303 0,-97 48,-248 13,-41 25,-66 h -3 q 84,-18 140,-87 56,-69 56,-139 0,-122 -73,-195 -73,-73 -177,-73 -104,0 -177,73 -73,73 -73,169.5 0,96.5 56,165.5 56,69 142,87 -37,92 -50.5,193 -13.5,101 -13.5,130 0,236 178,368 178,132 442,132 262,0 441,-136 179,-136 179,-374 0,-93 -27,-190.5 Q 1420,884 1410,859 1498,841 1553.5,772.5 1609,704 1609,634 q 0,-123 -73,-196 -73,-73 -177,-73 -104,0 -177,73 -73,73 -73,169 0,96 55,163.5 z M 1209,615 q 0,-62 44,-106 44,-44 106,-44 62,0 106,44 44,44 44,106 0,62 -44,106 -44,44 -106,44 -62,0 -106,-44 -44,-44 -44,-106 z M 200,614 q 0,-62 44,-106 44,-44 106,-44 62,0 106,44 44,44 44,106 0,62 -44,106 -44,44 -106,44 -62,0 -106,-44 -44,-44 -44,-106 z"
     id="path1" />
</svg>
