<?xml version="1.0" standalone="no"?>
<!DOCTYPE svg PUBLIC "-//W3C//DTD SVG 1.1//EN" "http://www.w3.org/Graphics/SVG/1.1/DTD/svg11.dtd" >
<svg xmlns="http://www.w3.org/2000/svg" xmlns:xlink="http://www.w3.org/1999/xlink" version="1.1" viewBox="-10 0 1703 2048">
   <path fill="currentColor"
d="M1435 1161q15 -33 44 -74t57 -64t82 -23v150q-48 0 -90 79q-17 33 -32 68.5t-39 70.5q-57 86 -148 86q-76 0 -120.5 -52t-63 -96t-35.5 -77q-41 -79 -89 -79t-89 79q-18 33 -33 68.5t-39 71.5q-57 85 -148 85q-77 0 -121.5 -52t-62.5 -96t-36 -77q-41 -79 -89 -79t-89 79
q-18 33 -33 68.5t-39 70.5q-57 86 -147 86v-150q61 0 126 -143q40 -89 102 -139q26 -22 80 -22t82 23q61 51 101 138q65 143 126 143t126 -143q40 -87 103 -139q26 -22 80 -22t82 23q60 49 100 138q65 143 126 143q49 0 93 -78q18 -32 33 -65zM566 501q65 143 121 143
q84 0 138 -149q13 -36 41.5 -74t54.5 -59.5t80 -21.5t82 23q60 49 100 138q65 143 126 143q49 0 93 -78q18 -32 33 -65t44 -74t57 -64t82 -23v150q-48 0 -90 79q-17 33 -32 68.5t-39 70.5q-57 86 -148 86q-76 0 -120.5 -52t-63 -96t-35.5 -77q-41 -79 -89 -79t-89 79
q-18 33 -33 68.5t-39 71.5q-57 85 -148 85q-77 0 -121.5 -52t-62.5 -96t-36 -77q-41 -79 -89 -79t-89 79q-18 33 -33 68.5t-39 70.5q-57 86 -147 86v-150q61 0 126 -143q40 -89 102 -139q26 -22 68 -22t63 8q39 13 76.5 63.5t55.5 89.5z" />
</svg>
