<?xml version="1.0" standalone="no"?>
<!DOCTYPE svg PUBLIC "-//W3C//DTD SVG 1.1//EN" "http://www.w3.org/Graphics/SVG/1.1/DTD/svg11.dtd" >
<svg xmlns="http://www.w3.org/2000/svg" xmlns:xlink="http://www.w3.org/1999/xlink" version="1.1" viewBox="-29 0 1533 2048">
   <path fill="currentColor"
d="M288 1586q0 32 72 30q35 -2 35 6v12q0 4 -8 4h-398q-8 0 -8 -4v-12q0 -4 8 -4h35q107 -6 203 -91q25 -22 55 -41l283 -208l-274 -196q-142 -103 -231 -119q-23 -4 -28 -5.5t-11.5 -3t-18 -1.5t-11.5 -4v-12q0 -4 8 -4h483q7 0 7 4v12q0 4 -36.5 4t-50 4.5t-13.5 18.5
t15 29l184 136v-962q0 -92 -34 -117.5t-123 -25.5h-45q-21 0 -21 -24q0 -14 13 -17h6l562 -15h101q179 12 298 129t119 285t-114 291.5t-273 133.5l-271 -12h-8q-14 0 -17 14v301l157 -112q17 -12 16.5 -30.5t-20 -22.5t-40.5 -4t-21 -4v-12q0 -4 7 -4h373q7 0 7 4v12
q0 4 -27 4t-58.5 7.5t-56 20.5t-47 29.5t-40.5 28t-45 31.5l-22 16q-10 8 -11 9l-172 119v69q103 80 254 187.5t179 122t52 18.5t38 4.5t36 1.5t22 11t-35 10h-426q-7 0 -7 -4v-12q0 -6 20 -5q55 3 55 -29q0 -10 -11 -17l-177 -130v218q0 8 -8 8h-177q-8 0 -8 -20v-292
l-287 211q-13 10 -13 20zM838.5 31.5q-13.5 0.5 -34.5 1t-21 16.5v645l2 30q3 21 19 22l102 6q161 0 259.5 -108t98.5 -271.5t-95.5 -253.5t-254.5 -90q-14 0 -26 0.5l-24 1t-25.5 1z" />
</svg>
