<?xml version="1.0" standalone="no"?>
<!DOCTYPE svg PUBLIC "-//W3C//DTD SVG 1.1//EN" "http://www.w3.org/Graphics/SVG/1.1/DTD/svg11.dtd" >
<svg xmlns="http://www.w3.org/2000/svg" xmlns:xlink="http://www.w3.org/1999/xlink" version="1.1" viewBox="-10 0 1822 2048">
   <path fill="currentColor"
d="M1429 1776q-186 0 -402 -148v-140q107 77 162 101q110 49 240 49q71 0 124 -75t53 -143t-30.5 -119t-78.5 -95t-106.5 -83.5t-114.5 -78.5q-138 -93 -177 -163q-97 -120 -117 -246l-75 -44l-352 1125l-480 -1488h126l354 1091l286 -916l144 94q25 -130 125.5 -221
t247 -91t263 107.5t116.5 250.5t-79 247q-102 134 -262 149q-23 2 -23 5q66 46 131 94q230 169 230 373q0 118 -87 241.5t-218 123.5zM1522 390.5q-72 -68.5 -171 -68.5t-166.5 73t-67.5 160.5t73.5 166.5t170 79t165 -72t68.5 -171t-72 -167.5z" />
</svg>
