<?xml version="1.0" standalone="no"?>
<!DOCTYPE svg PUBLIC "-//W3C//DTD SVG 1.1//EN" "http://www.w3.org/Graphics/SVG/1.1/DTD/svg11.dtd" >
<svg xmlns="http://www.w3.org/2000/svg" xmlns:xlink="http://www.w3.org/1999/xlink" version="1.1" viewBox="-10 0 1607 2048">
   <path fill="currentColor"
d="M1534 1978q-52 40 -117 40q-154 0 -237 -77q-103 -95 -103 -326q0 -89 36.5 -214.5t62.5 -206.5q98 -315 98 -481q0 -389 -316 -389q-107 0 -164.5 88t-57.5 214q0 75 23 160.5t38.5 138.5t38.5 136t23 164t-28.5 164t-80.5 145q-113 133 -298 133q-148 0 -261.5 -109.5
t-113.5 -269t111.5 -269t268.5 -109.5q91 0 173 41q30 15 45.5 27t14.5 9q-89 -223 -89 -353q0 -182 100 -312.5t294.5 -130.5t304 141t109.5 377q0 178 -80.5 457t-96 344t-15.5 99q0 271 157 271q92 0 125 -14t35 -23v135zM699 1291q0 -98 -71.5 -169.5t-168.5 -71.5
q-98 0 -170 72t-72 169t70.5 169t168.5 72q97 0 170 -71.5t73 -169.5z" />
</svg>
