<?xml version="1.0" standalone="no"?>
<!DOCTYPE svg PUBLIC "-//W3C//DTD SVG 1.1//EN" "http://www.w3.org/Graphics/SVG/1.1/DTD/svg11.dtd" >
<svg xmlns="http://www.w3.org/2000/svg" xmlns:xlink="http://www.w3.org/1999/xlink" version="1.1" viewBox="-10 0 2222 2048">
   <path fill="currentColor"
d="M1014 1864q183 0 371 -46v-1359q0 -78 -48 -127.5t-146 -49.5q-47 0 -136 43l2 6q-42 19 -75.5 36.5t-34.5 31.5v1239h-156v-1179q0 -78 -48 -127.5t-132.5 -49.5t-210.5 84q-32 21 -47 39v1233h-156v-1255q0 -42 -46 -58q-20 -7 -43 -11.5t-36.5 -8.5t-17 -7.5t-3.5 -15
t15 -19.5l255 -120q12 -6 15 -6q17 0 17 24v166q1 6 7.5 6t33 -14t69.5 -39.5t113.5 -59.5t149.5 -34q127 0 182 109q21 44 38 37.5t25 -9.5l73 -37v1q172 -101 287.5 -101t170.5 109q21 44 38 37.5t25 -9.5l219 -110q52 -27 133 -27q214 0 214 421v594q0 413 -437 612
q-74 34 -153 59v386h-156v-344q-217 47 -451 47zM1975 587q0 -134 -17 -183.5t-36 -72.5q-40 -50 -104.5 -50t-250.5 90q-25 15 -26 28v1368q308 -125 401 -369q33 -89 33 -197v-614z" />
</svg>
