<?xml version="1.0" standalone="no"?>
<!DOCTYPE svg PUBLIC "-//W3C//DTD SVG 1.1//EN" "http://www.w3.org/Graphics/SVG/1.1/DTD/svg11.dtd" >
<svg xmlns="http://www.w3.org/2000/svg" xmlns:xlink="http://www.w3.org/1999/xlink" version="1.1" viewBox="-10 0 1638 2048">
   <path fill="currentColor"
d="M75 926q0 -200 101 -373q151 -258 442 -339q94 -27 196 -27q200 0 373 101q258 151 339 442q27 94 27 196q0 200 -101 373q-151 258 -442 339q-94 27 -196 27q-200 0 -373 -101q-258 -151 -339 -442q-27 -94 -27 -196zM210 926q0 250 177 427t427 177t427 -177t177 -427
t-177 -427t-427 -177t-427 177t-177 427z" />
</svg>
