<?xml version="1.0" standalone="no"?>
<!DOCTYPE svg PUBLIC "-//W3C//DTD SVG 1.1//EN" "http://www.w3.org/Graphics/SVG/1.1/DTD/svg11.dtd" >
<svg xmlns="http://www.w3.org/2000/svg" xmlns:xlink="http://www.w3.org/1999/xlink" version="1.1" viewBox="-10 0 1529 2048">
   <path fill="currentColor"
d="M1479 300q0 8 -61 9.5t-114 18.5q-97 31 -97 113v1007q0 61 95 94q76 26 167 26q8 0 8 8v54q0 8 -8 8h-1421q-8 0 -8 -8v-54q0 -8 55.5 -8t120.5 -24q96 -36 96 -119v-997q0 -61 -96 -94q-75 -26 -166 -26q-8 0 -8 -8v-64q0 -8 8 -8h1421q8 0 8 8v64zM467 1523h576v-1180
h-576v1180z" />
</svg>
